# xmcd
#
# Track frame offsets:
#	150
#	48513
#	89883
#	125868
#	157950
#	212743
#	237823
#
# Disc length: 3604 seconds
#
# Revision: 1
# Processed by: cddbd v1.5.1PL0 Copyright (c) Steve Scherf et al.
# Submitted via: CDex 1.50Beta5
#
DISCID=620e1207
DTITLE=John Coltrane - Perfect Jazz Collection／Jone Coltrane
DYEAR=1900
DGENRE=Jazz
TTITLE0=Blue Train
TTITLE1=Moment's Notice
TTITLE2=I'm Old Fashioned
TTITLE3=Lazy Bird
TTITLE4=Good Bait
TTITLE5=Russian Lullaby
TTITLE6=Locomotion
EXTD=
EXTT0=
EXTT1=
EXTT2=
EXTT3=
EXTT4=
EXTT5=
EXTT6=
PLAYORDER=
